<svg width="394" height="124" viewBox="0 0 394 124" fill="none" xmlns="http://www.w3.org/2000/svg">
<path d="M54.25 10C63.7769 10 71.5 17.7231 71.5 27.25C71.5 36.7769 63.7769 44.5 54.25 44.5C52.9159 44.5 51.6172 44.3482 50.3701 44.0615L40.7041 59.4551C43.0784 62.4105 44.5 66.164 44.5 70.25C44.5 71.8547 44.2791 73.4078 43.8691 74.8818L67.5371 92.1533L60.4629 101.847L36.8262 84.5977C34.0864 86.4299 30.7935 87.5 27.25 87.5C17.7231 87.5 10 79.7769 10 70.25C10 60.7231 17.7231 53 27.25 53C28.3284 53 29.3836 53.0997 30.4072 53.2891L40.3467 37.4609C38.2435 34.602 37 31.0714 37 27.25C37 17.7231 44.7231 10 54.25 10Z" fill="#292F3B"/>
<path d="M81.5 96.25C81.5 105.777 73.7769 113.5 64.25 113.5C54.7231 113.5 47 105.777 47 96.25C47 86.7231 54.7231 79 64.25 79C73.7769 79 81.5 86.7231 81.5 96.25Z" fill="#1183CD"/>
<g clip-path="url(#clip0_9_239)">
<path d="M108.956 73.21C104.22 73.21 99.964 72.154 96.188 70.042C92.412 67.93 89.436 65.05 87.26 61.402C85.084 57.754 83.996 53.658 83.996 49.114C83.996 44.506 85.084 40.378 87.26 36.73C89.436 33.082 92.412 30.202 96.188 28.09C100.028 25.914 104.284 24.826 108.956 24.826C112.604 24.826 115.964 25.498 119.036 26.842C122.108 28.186 124.764 30.106 127.004 32.602L118.94 40.762C117.724 39.418 116.252 38.394 114.524 37.69C112.86 36.986 111.004 36.634 108.956 36.634C106.652 36.634 104.572 37.178 102.716 38.266C100.924 39.29 99.484 40.73 98.396 42.586C97.372 44.378 96.86 46.522 96.86 49.018C96.86 51.45 97.372 53.626 98.396 55.546C99.484 57.402 100.924 58.874 102.716 59.962C104.572 60.986 106.652 61.498 108.956 61.498C111.068 61.498 112.956 61.146 114.62 60.442C116.348 59.674 117.82 58.586 119.036 57.178L127.196 65.338C124.828 67.898 122.108 69.85 119.036 71.194C115.964 72.538 112.604 73.21 108.956 73.21ZM155.079 73.21C150.407 73.21 146.183 72.154 142.407 70.042C138.695 67.866 135.719 64.954 133.479 61.306C131.303 57.594 130.215 53.466 130.215 48.922C130.215 44.378 131.303 40.314 133.479 36.73C135.655 33.082 138.631 30.202 142.407 28.09C146.183 25.914 150.375 24.826 154.983 24.826C159.719 24.826 163.943 25.914 167.655 28.09C171.431 30.202 174.407 33.082 176.583 36.73C178.759 40.314 179.847 44.378 179.847 48.922C179.847 53.466 178.759 57.594 176.583 61.306C174.407 64.954 171.431 67.866 167.655 70.042C163.943 72.154 159.751 73.21 155.079 73.21ZM154.983 61.498C157.351 61.498 159.431 60.986 161.223 59.962C163.079 58.874 164.487 57.402 165.447 55.546C166.471 53.626 166.983 51.45 166.983 49.018C166.983 46.586 166.471 44.442 165.447 42.586C164.423 40.73 163.015 39.29 161.223 38.266C159.431 37.178 157.351 36.634 154.983 36.634C152.679 36.634 150.631 37.178 148.839 38.266C147.047 39.29 145.639 40.73 144.615 42.586C143.591 44.442 143.079 46.586 143.079 49.018C143.079 51.45 143.591 53.626 144.615 55.546C145.639 57.402 147.047 58.874 148.839 59.962C150.631 60.986 152.679 61.498 154.983 61.498Z" fill="#292F3B"/>
<path d="M209.956 73.21C205.22 73.21 200.964 72.154 197.188 70.042C193.412 67.93 190.436 65.05 188.26 61.402C186.084 57.754 184.996 53.658 184.996 49.114C184.996 44.506 186.084 40.378 188.26 36.73C190.436 33.082 193.412 30.202 197.188 28.09C201.028 25.914 205.284 24.826 209.956 24.826C213.604 24.826 216.964 25.498 220.036 26.842C223.108 28.186 225.764 30.106 228.004 32.602L219.94 40.762C218.724 39.418 217.252 38.394 215.524 37.69C213.86 36.986 212.004 36.634 209.956 36.634C207.652 36.634 205.572 37.178 203.716 38.266C201.924 39.29 200.484 40.73 199.396 42.586C198.372 44.378 197.86 46.522 197.86 49.018C197.86 51.45 198.372 53.626 199.396 55.546C200.484 57.402 201.924 58.874 203.716 59.962C205.572 60.986 207.652 61.498 209.956 61.498C212.068 61.498 213.956 61.146 215.62 60.442C217.348 59.674 218.82 58.586 220.036 57.178L228.196 65.338C225.828 67.898 223.108 69.85 220.036 71.194C216.964 72.538 213.604 73.21 209.956 73.21ZM256.079 73.21C251.407 73.21 247.183 72.154 243.407 70.042C239.695 67.866 236.719 64.954 234.479 61.306C232.303 57.594 231.215 53.466 231.215 48.922C231.215 44.378 232.303 40.314 234.479 36.73C236.655 33.082 239.631 30.202 243.407 28.09C247.183 25.914 251.375 24.826 255.983 24.826C260.719 24.826 264.943 25.914 268.655 28.09C272.431 30.202 275.407 33.082 277.583 36.73C279.759 40.314 280.847 44.378 280.847 48.922C280.847 53.466 279.759 57.594 277.583 61.306C275.407 64.954 272.431 67.866 268.655 70.042C264.943 72.154 260.751 73.21 256.079 73.21ZM255.983 61.498C258.351 61.498 260.431 60.986 262.223 59.962C264.079 58.874 265.487 57.402 266.447 55.546C267.471 53.626 267.983 51.45 267.983 49.018C267.983 46.586 267.471 44.442 266.447 42.586C265.423 40.73 264.015 39.29 262.223 38.266C260.431 37.178 258.351 36.634 255.983 36.634C253.679 36.634 251.631 37.178 249.839 38.266C248.047 39.29 246.639 40.73 245.615 42.586C244.591 44.442 244.079 46.586 244.079 49.018C244.079 51.45 244.591 53.626 245.615 55.546C246.639 57.402 248.047 58.874 249.839 59.962C251.631 60.986 253.679 61.498 255.983 61.498Z" fill="#292F3B"/>
<path d="M308.46 73.21C304.236 73.21 300.428 72.154 297.036 70.042C293.644 67.93 290.988 65.05 289.068 61.402C287.148 57.754 286.188 53.658 286.188 49.114C286.188 44.506 287.148 40.378 289.068 36.73C290.988 33.082 293.644 30.202 297.036 28.09C300.428 25.978 304.236 24.922 308.46 24.922C311.788 24.922 314.764 25.594 317.388 26.938C320.012 28.282 322.092 30.17 323.628 32.602C325.228 34.97 326.092 37.658 326.22 40.666V57.37C326.092 60.442 325.228 63.162 323.628 65.53C322.092 67.898 320.012 69.786 317.388 71.194C314.764 72.538 311.788 73.21 308.46 73.21ZM310.764 61.594C314.284 61.594 317.132 60.442 319.308 58.138C321.484 55.77 322.572 52.73 322.572 49.018C322.572 46.586 322.06 44.442 321.036 42.586C320.076 40.666 318.7 39.194 316.908 38.17C315.18 37.082 313.132 36.538 310.764 36.538C308.46 36.538 306.412 37.082 304.62 38.17C302.892 39.194 301.516 40.666 300.492 42.586C299.532 44.442 299.052 46.586 299.052 49.018C299.052 51.514 299.532 53.722 300.492 55.642C301.516 57.498 302.892 58.97 304.62 60.058C306.412 61.082 308.46 61.594 310.764 61.594ZM321.9 72.25V59.77L323.916 48.442L321.9 37.306V25.882H334.38V72.25H321.9ZM345.506 72.25V25.882H358.082V72.25H345.506ZM358.082 46.618L353.186 43.354C353.762 37.658 355.426 33.178 358.178 29.914C360.93 26.586 364.898 24.922 370.082 24.922C372.322 24.922 374.338 25.306 376.13 26.074C377.922 26.778 379.554 27.962 381.026 29.626L373.154 38.65C372.45 37.882 371.586 37.306 370.562 36.922C369.602 36.538 368.482 36.346 367.202 36.346C364.514 36.346 362.306 37.21 360.578 38.938C358.914 40.602 358.082 43.162 358.082 46.618Z" fill="#1183CD"/>
<path d="M107.331 94.45C106.304 94.45 105.351 94.27 104.471 93.91C103.591 93.5367 102.818 93.0233 102.151 92.37C101.498 91.7033 100.991 90.93 100.631 90.05C100.284 89.17 100.111 88.2233 100.111 87.21C100.111 86.1967 100.284 85.25 100.631 84.37C100.991 83.49 101.498 82.7233 102.151 82.07C102.818 81.4167 103.584 80.9033 104.451 80.53C105.331 80.1567 106.291 79.97 107.331 79.97C108.451 79.97 109.438 80.1567 110.291 80.53C111.144 80.89 111.898 81.39 112.551 82.03L110.711 83.87C110.324 83.4433 109.851 83.11 109.291 82.87C108.731 82.63 108.078 82.51 107.331 82.51C106.678 82.51 106.078 82.6233 105.531 82.85C104.998 83.0633 104.531 83.3833 104.131 83.81C103.731 84.2233 103.424 84.7233 103.211 85.31C102.998 85.8833 102.891 86.5167 102.891 87.21C102.891 87.9167 102.998 88.5567 103.211 89.13C103.424 89.7033 103.731 90.2033 104.131 90.63C104.531 91.0433 104.998 91.3633 105.531 91.59C106.078 91.8167 106.678 91.93 107.331 91.93C108.118 91.93 108.791 91.81 109.351 91.57C109.924 91.33 110.404 90.99 110.791 90.55L112.631 92.39C111.978 93.0433 111.218 93.55 110.351 93.91C109.484 94.27 108.478 94.45 107.331 94.45ZM118.528 94.45C117.555 94.45 116.675 94.23 115.888 93.79C115.115 93.3367 114.495 92.73 114.028 91.97C113.575 91.1967 113.348 90.3367 113.348 89.39C113.348 88.4433 113.575 87.5967 114.028 86.85C114.481 86.09 115.101 85.49 115.888 85.05C116.675 84.5967 117.548 84.37 118.508 84.37C119.495 84.37 120.375 84.5967 121.148 85.05C121.935 85.49 122.555 86.09 123.008 86.85C123.461 87.5967 123.688 88.4433 123.688 89.39C123.688 90.3367 123.461 91.1967 123.008 91.97C122.555 92.73 121.935 93.3367 121.148 93.79C120.375 94.23 119.501 94.45 118.528 94.45ZM118.508 92.01C119.001 92.01 119.435 91.9033 119.808 91.69C120.195 91.4633 120.488 91.1567 120.688 90.77C120.901 90.37 121.008 89.9167 121.008 89.41C121.008 88.9033 120.901 88.4567 120.688 88.07C120.475 87.6833 120.181 87.3833 119.808 87.17C119.435 86.9433 119.001 86.83 118.508 86.83C118.028 86.83 117.601 86.9433 117.228 87.17C116.855 87.3833 116.561 87.6833 116.348 88.07C116.135 88.4567 116.028 88.9033 116.028 89.41C116.028 89.9167 116.135 90.37 116.348 90.77C116.561 91.1567 116.855 91.4633 117.228 91.69C117.601 91.9033 118.028 92.01 118.508 92.01ZM129.455 94.45C128.562 94.45 127.762 94.23 127.055 93.79C126.348 93.35 125.788 92.75 125.375 91.99C124.975 91.23 124.775 90.3767 124.775 89.43C124.775 88.47 124.975 87.61 125.375 86.85C125.788 86.09 126.342 85.49 127.035 85.05C127.742 84.61 128.548 84.39 129.455 84.39C130.148 84.39 130.768 84.53 131.315 84.81C131.875 85.09 132.322 85.4833 132.655 85.99C133.002 86.4833 133.188 87.0433 133.215 87.67V91.11C133.188 91.7367 133.008 92.3033 132.675 92.81C132.342 93.3167 131.895 93.7167 131.335 94.01C130.775 94.3033 130.148 94.45 129.455 94.45ZM129.895 92.03C130.388 92.03 130.815 91.9233 131.175 91.71C131.548 91.4833 131.835 91.1767 132.035 90.79C132.248 90.39 132.355 89.93 132.355 89.41C132.355 88.9033 132.248 88.4567 132.035 88.07C131.835 87.67 131.548 87.3633 131.175 87.15C130.815 86.9233 130.395 86.81 129.915 86.81C129.422 86.81 128.988 86.9233 128.615 87.15C128.255 87.3767 127.968 87.6833 127.755 88.07C127.555 88.4567 127.455 88.9033 127.455 89.41C127.455 89.93 127.555 90.39 127.755 90.79C127.968 91.1767 128.262 91.4833 128.635 91.71C129.008 91.9233 129.428 92.03 129.895 92.03ZM134.815 94.25H132.215V91.65L132.635 89.29L132.195 86.97V79.79H134.815V94.25ZM141.753 94.45C140.739 94.45 139.839 94.2367 139.053 93.81C138.266 93.37 137.639 92.77 137.173 92.01C136.719 91.25 136.493 90.3833 136.493 89.41C136.493 88.45 136.713 87.5967 137.153 86.85C137.606 86.09 138.219 85.49 138.993 85.05C139.766 84.5967 140.626 84.37 141.573 84.37C142.506 84.37 143.326 84.5833 144.033 85.01C144.753 85.4233 145.313 85.9967 145.713 86.73C146.126 87.45 146.333 88.27 146.333 89.19C146.333 89.3633 146.319 89.5433 146.293 89.73C146.279 89.9033 146.246 90.1033 146.193 90.33L138.073 90.35V88.39L144.973 88.37L143.913 89.19C143.886 88.6167 143.779 88.1367 143.593 87.75C143.419 87.3633 143.159 87.07 142.813 86.87C142.479 86.6567 142.066 86.55 141.573 86.55C141.053 86.55 140.599 86.67 140.213 86.91C139.826 87.1367 139.526 87.4633 139.313 87.89C139.113 88.3033 139.013 88.7967 139.013 89.37C139.013 89.9567 139.119 90.47 139.333 90.91C139.559 91.3367 139.879 91.67 140.293 91.91C140.706 92.1367 141.186 92.25 141.733 92.25C142.226 92.25 142.673 92.17 143.073 92.01C143.473 91.8367 143.819 91.5833 144.113 91.25L145.653 92.79C145.186 93.3367 144.613 93.75 143.933 94.03C143.266 94.31 142.539 94.45 141.753 94.45ZM158.659 94.45C157.633 94.45 156.679 94.27 155.799 93.91C154.919 93.5367 154.146 93.0233 153.479 92.37C152.826 91.7033 152.319 90.93 151.959 90.05C151.613 89.17 151.439 88.2233 151.439 87.21C151.439 86.1967 151.613 85.25 151.959 84.37C152.319 83.49 152.826 82.7233 153.479 82.07C154.146 81.4167 154.913 80.9033 155.779 80.53C156.659 80.1567 157.619 79.97 158.659 79.97C159.779 79.97 160.766 80.1567 161.619 80.53C162.473 80.89 163.226 81.39 163.879 82.03L162.039 83.87C161.653 83.4433 161.179 83.11 160.619 82.87C160.059 82.63 159.406 82.51 158.659 82.51C158.006 82.51 157.406 82.6233 156.859 82.85C156.326 83.0633 155.859 83.3833 155.459 83.81C155.059 84.2233 154.753 84.7233 154.539 85.31C154.326 85.8833 154.219 86.5167 154.219 87.21C154.219 87.9167 154.326 88.5567 154.539 89.13C154.753 89.7033 155.059 90.2033 155.459 90.63C155.859 91.0433 156.326 91.3633 156.859 91.59C157.406 91.8167 158.006 91.93 158.659 91.93C159.446 91.93 160.119 91.81 160.679 91.57C161.253 91.33 161.733 90.99 162.119 90.55L163.959 92.39C163.306 93.0433 162.546 93.55 161.679 93.91C160.813 94.27 159.806 94.45 158.659 94.45ZM169.856 94.45C168.883 94.45 168.003 94.23 167.216 93.79C166.443 93.3367 165.823 92.73 165.356 91.97C164.903 91.1967 164.676 90.3367 164.676 89.39C164.676 88.4433 164.903 87.5967 165.356 86.85C165.81 86.09 166.43 85.49 167.216 85.05C168.003 84.5967 168.876 84.37 169.836 84.37C170.823 84.37 171.703 84.5967 172.476 85.05C173.263 85.49 173.883 86.09 174.336 86.85C174.79 87.5967 175.016 88.4433 175.016 89.39C175.016 90.3367 174.79 91.1967 174.336 91.97C173.883 92.73 173.263 93.3367 172.476 93.79C171.703 94.23 170.83 94.45 169.856 94.45ZM169.836 92.01C170.33 92.01 170.763 91.9033 171.136 91.69C171.523 91.4633 171.816 91.1567 172.016 90.77C172.23 90.37 172.336 89.9167 172.336 89.41C172.336 88.9033 172.23 88.4567 172.016 88.07C171.803 87.6833 171.51 87.3833 171.136 87.17C170.763 86.9433 170.33 86.83 169.836 86.83C169.356 86.83 168.93 86.9433 168.556 87.17C168.183 87.3833 167.89 87.6833 167.676 88.07C167.463 88.4567 167.356 88.9033 167.356 89.41C167.356 89.9167 167.463 90.37 167.676 90.77C167.89 91.1567 168.183 91.4633 168.556 91.69C168.93 91.9033 169.356 92.01 169.836 92.01ZM183.203 94.25V88.71C183.203 88.1367 183.023 87.67 182.663 87.31C182.303 86.95 181.836 86.77 181.263 86.77C180.89 86.77 180.556 86.85 180.263 87.01C179.97 87.17 179.736 87.3967 179.563 87.69C179.403 87.9833 179.323 88.3233 179.323 88.71L178.303 88.19C178.303 87.43 178.463 86.77 178.783 86.21C179.116 85.6367 179.57 85.19 180.143 84.87C180.73 84.55 181.39 84.39 182.123 84.39C182.83 84.39 183.463 84.57 184.023 84.93C184.583 85.2767 185.023 85.7367 185.343 86.31C185.663 86.87 185.823 87.4767 185.823 88.13V94.25H183.203ZM176.703 94.25V84.59H179.323V94.25H176.703ZM194.433 94.25V88.71C194.433 88.1367 194.253 87.67 193.893 87.31C193.533 86.95 193.067 86.77 192.493 86.77C192.12 86.77 191.787 86.85 191.493 87.01C191.2 87.17 190.967 87.3967 190.793 87.69C190.633 87.9833 190.553 88.3233 190.553 88.71L189.533 88.19C189.533 87.43 189.693 86.77 190.013 86.21C190.347 85.6367 190.8 85.19 191.373 84.87C191.96 84.55 192.62 84.39 193.353 84.39C194.06 84.39 194.693 84.57 195.253 84.93C195.813 85.2767 196.253 85.7367 196.573 86.31C196.893 86.87 197.053 87.4767 197.053 88.13V94.25H194.433ZM187.933 94.25V84.59H190.553V94.25H187.933ZM203.784 94.45C202.771 94.45 201.871 94.2367 201.084 93.81C200.297 93.37 199.671 92.77 199.204 92.01C198.751 91.25 198.524 90.3833 198.524 89.41C198.524 88.45 198.744 87.5967 199.184 86.85C199.637 86.09 200.251 85.49 201.024 85.05C201.797 84.5967 202.657 84.37 203.604 84.37C204.537 84.37 205.357 84.5833 206.064 85.01C206.784 85.4233 207.344 85.9967 207.744 86.73C208.157 87.45 208.364 88.27 208.364 89.19C208.364 89.3633 208.351 89.5433 208.324 89.73C208.311 89.9033 208.277 90.1033 208.224 90.33L200.104 90.35V88.39L207.004 88.37L205.944 89.19C205.917 88.6167 205.811 88.1367 205.624 87.75C205.451 87.3633 205.191 87.07 204.844 86.87C204.511 86.6567 204.097 86.55 203.604 86.55C203.084 86.55 202.631 86.67 202.244 86.91C201.857 87.1367 201.557 87.4633 201.344 87.89C201.144 88.3033 201.044 88.7967 201.044 89.37C201.044 89.9567 201.151 90.47 201.364 90.91C201.591 91.3367 201.911 91.67 202.324 91.91C202.737 92.1367 203.217 92.25 203.764 92.25C204.257 92.25 204.704 92.17 205.104 92.01C205.504 91.8367 205.851 91.5833 206.144 91.25L207.684 92.79C207.217 93.3367 206.644 93.75 205.964 94.03C205.297 94.31 204.571 94.45 203.784 94.45ZM214.544 94.45C213.558 94.45 212.671 94.23 211.884 93.79C211.098 93.35 210.478 92.75 210.024 91.99C209.571 91.23 209.344 90.3767 209.344 89.43C209.344 88.47 209.571 87.61 210.024 86.85C210.478 86.09 211.098 85.49 211.884 85.05C212.684 84.5967 213.571 84.37 214.544 84.37C215.304 84.37 216.004 84.51 216.644 84.79C217.284 85.07 217.838 85.47 218.304 85.99L216.624 87.69C216.371 87.41 216.064 87.1967 215.704 87.05C215.358 86.9033 214.971 86.83 214.544 86.83C214.064 86.83 213.631 86.9433 213.244 87.17C212.871 87.3833 212.571 87.6833 212.344 88.07C212.131 88.4433 212.024 88.89 212.024 89.41C212.024 89.9167 212.131 90.37 212.344 90.77C212.571 91.1567 212.871 91.4633 213.244 91.69C213.631 91.9033 214.064 92.01 214.544 92.01C214.984 92.01 215.378 91.9367 215.724 91.79C216.084 91.63 216.391 91.4033 216.644 91.11L218.344 92.81C217.851 93.3433 217.284 93.75 216.644 94.03C216.004 94.31 215.304 94.45 214.544 94.45ZM221.092 94.25V80.57H223.712V94.25H221.092ZM218.832 86.89V84.59H225.972V86.89H218.832ZM231.831 94.45C230.817 94.45 229.917 94.2367 229.131 93.81C228.344 93.37 227.717 92.77 227.251 92.01C226.797 91.25 226.571 90.3833 226.571 89.41C226.571 88.45 226.791 87.5967 227.231 86.85C227.684 86.09 228.297 85.49 229.071 85.05C229.844 84.5967 230.704 84.37 231.651 84.37C232.584 84.37 233.404 84.5833 234.111 85.01C234.831 85.4233 235.391 85.9967 235.791 86.73C236.204 87.45 236.411 88.27 236.411 89.19C236.411 89.3633 236.397 89.5433 236.371 89.73C236.357 89.9033 236.324 90.1033 236.271 90.33L228.151 90.35V88.39L235.051 88.37L233.991 89.19C233.964 88.6167 233.857 88.1367 233.671 87.75C233.497 87.3633 233.237 87.07 232.891 86.87C232.557 86.6567 232.144 86.55 231.651 86.55C231.131 86.55 230.677 86.67 230.291 86.91C229.904 87.1367 229.604 87.4633 229.391 87.89C229.191 88.3033 229.091 88.7967 229.091 89.37C229.091 89.9567 229.197 90.47 229.411 90.91C229.637 91.3367 229.957 91.67 230.371 91.91C230.784 92.1367 231.264 92.25 231.811 92.25C232.304 92.25 232.751 92.17 233.151 92.01C233.551 91.8367 233.897 91.5833 234.191 91.25L235.731 92.79C235.264 93.3367 234.691 93.75 234.011 94.03C233.344 94.31 232.617 94.45 231.831 94.45ZM242.111 94.45C241.218 94.45 240.418 94.23 239.711 93.79C239.004 93.35 238.444 92.75 238.031 91.99C237.631 91.23 237.431 90.3767 237.431 89.43C237.431 88.47 237.631 87.61 238.031 86.85C238.444 86.09 238.998 85.49 239.691 85.05C240.398 84.61 241.204 84.39 242.111 84.39C242.804 84.39 243.424 84.53 243.971 84.81C244.531 85.09 244.978 85.4833 245.311 85.99C245.658 86.4833 245.844 87.0433 245.871 87.67V91.11C245.844 91.7367 245.664 92.3033 245.331 92.81C244.998 93.3167 244.551 93.7167 243.991 94.01C243.431 94.3033 242.804 94.45 242.111 94.45ZM242.551 92.03C243.044 92.03 243.471 91.9233 243.831 91.71C244.204 91.4833 244.491 91.1767 244.691 90.79C244.904 90.39 245.011 89.93 245.011 89.41C245.011 88.9033 244.904 88.4567 244.691 88.07C244.491 87.67 244.204 87.3633 243.831 87.15C243.471 86.9233 243.051 86.81 242.571 86.81C242.078 86.81 241.644 86.9233 241.271 87.15C240.911 87.3767 240.624 87.6833 240.411 88.07C240.211 88.4567 240.111 88.9033 240.111 89.41C240.111 89.93 240.211 90.39 240.411 90.79C240.624 91.1767 240.918 91.4833 241.291 91.71C241.664 91.9233 242.084 92.03 242.551 92.03ZM247.471 94.25H244.871V91.65L245.291 89.29L244.851 86.97V79.79H247.471V94.25Z" fill="#292F3B"/>
<path d="M252.584 94.25L258.244 80.19H260.464L266.104 94.25H263.204L258.844 82.71H259.844L255.424 94.25H252.584ZM255.584 91.63V89.35H263.144V91.63H255.584ZM267.64 94.25V84.59H270.26V94.25H267.64ZM270.26 88.91L269.24 88.23C269.36 87.0433 269.707 86.11 270.28 85.43C270.854 84.7367 271.68 84.39 272.76 84.39C273.227 84.39 273.647 84.47 274.02 84.63C274.394 84.7767 274.734 85.0233 275.04 85.37L273.4 87.25C273.254 87.09 273.074 86.97 272.86 86.89C272.66 86.81 272.427 86.77 272.16 86.77C271.6 86.77 271.14 86.95 270.78 87.31C270.434 87.6567 270.26 88.19 270.26 88.91ZM280.247 94.45C279.261 94.45 278.374 94.23 277.587 93.79C276.801 93.35 276.181 92.75 275.727 91.99C275.274 91.23 275.047 90.3767 275.047 89.43C275.047 88.47 275.274 87.61 275.727 86.85C276.181 86.09 276.801 85.49 277.587 85.05C278.387 84.5967 279.274 84.37 280.247 84.37C281.007 84.37 281.707 84.51 282.347 84.79C282.987 85.07 283.541 85.47 284.007 85.99L282.327 87.69C282.074 87.41 281.767 87.1967 281.407 87.05C281.061 86.9033 280.674 86.83 280.247 86.83C279.767 86.83 279.334 86.9433 278.947 87.17C278.574 87.3833 278.274 87.6833 278.047 88.07C277.834 88.4433 277.727 88.89 277.727 89.41C277.727 89.9167 277.834 90.37 278.047 90.77C278.274 91.1567 278.574 91.4633 278.947 91.69C279.334 91.9033 279.767 92.01 280.247 92.01C280.687 92.01 281.081 91.9367 281.427 91.79C281.787 91.63 282.094 91.4033 282.347 91.11L284.047 92.81C283.554 93.3433 282.987 93.75 282.347 94.03C281.707 94.31 281.007 94.45 280.247 94.45ZM292.031 94.25V88.71C292.031 88.1367 291.851 87.67 291.491 87.31C291.131 86.95 290.664 86.77 290.091 86.77C289.718 86.77 289.384 86.85 289.091 87.01C288.798 87.17 288.564 87.3967 288.391 87.69C288.231 87.9833 288.151 88.3233 288.151 88.71L287.131 88.19C287.131 87.43 287.291 86.77 287.611 86.21C287.931 85.6367 288.371 85.19 288.931 84.87C289.504 84.55 290.158 84.39 290.891 84.39C291.624 84.39 292.271 84.55 292.831 84.87C293.404 85.19 293.851 85.63 294.171 86.19C294.491 86.75 294.651 87.3967 294.651 88.13V94.25H292.031ZM285.531 94.25V79.79H288.151V94.25H285.531ZM296.762 94.25V84.59H299.402V94.25H296.762ZM298.082 83.03C297.655 83.03 297.302 82.89 297.022 82.61C296.742 82.3167 296.602 81.9567 296.602 81.53C296.602 81.1167 296.742 80.7633 297.022 80.47C297.302 80.1767 297.655 80.03 298.082 80.03C298.522 80.03 298.875 80.1767 299.142 80.47C299.422 80.7633 299.562 81.1167 299.562 81.53C299.562 81.9567 299.422 82.3167 299.142 82.61C298.875 82.89 298.522 83.03 298.082 83.03ZM303.143 94.25V80.57H305.763V94.25H303.143ZM300.883 86.89V84.59H308.023V86.89H300.883ZM313.882 94.45C312.868 94.45 311.968 94.2367 311.182 93.81C310.395 93.37 309.768 92.77 309.302 92.01C308.848 91.25 308.622 90.3833 308.622 89.41C308.622 88.45 308.842 87.5967 309.282 86.85C309.735 86.09 310.348 85.49 311.122 85.05C311.895 84.5967 312.755 84.37 313.702 84.37C314.635 84.37 315.455 84.5833 316.162 85.01C316.882 85.4233 317.442 85.9967 317.842 86.73C318.255 87.45 318.462 88.27 318.462 89.19C318.462 89.3633 318.448 89.5433 318.422 89.73C318.408 89.9033 318.375 90.1033 318.322 90.33L310.202 90.35V88.39L317.102 88.37L316.042 89.19C316.015 88.6167 315.908 88.1367 315.722 87.75C315.548 87.3633 315.288 87.07 314.942 86.87C314.608 86.6567 314.195 86.55 313.702 86.55C313.182 86.55 312.728 86.67 312.342 86.91C311.955 87.1367 311.655 87.4633 311.442 87.89C311.242 88.3033 311.142 88.7967 311.142 89.37C311.142 89.9567 311.248 90.47 311.462 90.91C311.688 91.3367 312.008 91.67 312.422 91.91C312.835 92.1367 313.315 92.25 313.862 92.25C314.355 92.25 314.802 92.17 315.202 92.01C315.602 91.8367 315.948 91.5833 316.242 91.25L317.782 92.79C317.315 93.3367 316.742 93.75 316.062 94.03C315.395 94.31 314.668 94.45 313.882 94.45ZM324.642 94.45C323.655 94.45 322.769 94.23 321.982 93.79C321.195 93.35 320.575 92.75 320.122 91.99C319.669 91.23 319.442 90.3767 319.442 89.43C319.442 88.47 319.669 87.61 320.122 86.85C320.575 86.09 321.195 85.49 321.982 85.05C322.782 84.5967 323.669 84.37 324.642 84.37C325.402 84.37 326.102 84.51 326.742 84.79C327.382 85.07 327.935 85.47 328.402 85.99L326.722 87.69C326.469 87.41 326.162 87.1967 325.802 87.05C325.455 86.9033 325.069 86.83 324.642 86.83C324.162 86.83 323.729 86.9433 323.342 87.17C322.969 87.3833 322.669 87.6833 322.442 88.07C322.229 88.4433 322.122 88.89 322.122 89.41C322.122 89.9167 322.229 90.37 322.442 90.77C322.669 91.1567 322.969 91.4633 323.342 91.69C323.729 91.9033 324.162 92.01 324.642 92.01C325.082 92.01 325.475 91.9367 325.822 91.79C326.182 91.63 326.489 91.4033 326.742 91.11L328.442 92.81C327.949 93.3433 327.382 93.75 326.742 94.03C326.102 94.31 325.402 94.45 324.642 94.45ZM331.189 94.25V80.57H333.809V94.25H331.189ZM328.929 86.89V84.59H336.069V86.89H328.929ZM341.663 94.45C340.809 94.45 340.049 94.27 339.383 93.91C338.729 93.55 338.216 93.05 337.843 92.41C337.469 91.77 337.283 91.03 337.283 90.19V84.59H339.923V90.13C339.923 90.53 339.989 90.8767 340.123 91.17C340.256 91.45 340.456 91.6633 340.723 91.81C340.989 91.9567 341.303 92.03 341.663 92.03C342.209 92.03 342.636 91.8633 342.943 91.53C343.249 91.1967 343.403 90.73 343.403 90.13V84.59H346.023V90.19C346.023 91.0433 345.836 91.79 345.463 92.43C345.103 93.07 344.589 93.57 343.923 93.93C343.269 94.2767 342.516 94.45 341.663 94.45ZM348.109 94.25V84.59H350.729V94.25H348.109ZM350.729 88.91L349.709 88.23C349.829 87.0433 350.176 86.11 350.749 85.43C351.323 84.7367 352.149 84.39 353.229 84.39C353.696 84.39 354.116 84.47 354.489 84.63C354.863 84.7767 355.203 85.0233 355.509 85.37L353.869 87.25C353.723 87.09 353.543 86.97 353.329 86.89C353.129 86.81 352.896 86.77 352.629 86.77C352.069 86.77 351.609 86.95 351.249 87.31C350.903 87.6567 350.729 88.19 350.729 88.91ZM360.776 94.45C359.763 94.45 358.863 94.2367 358.076 93.81C357.289 93.37 356.663 92.77 356.196 92.01C355.743 91.25 355.516 90.3833 355.516 89.41C355.516 88.45 355.736 87.5967 356.176 86.85C356.629 86.09 357.243 85.49 358.016 85.05C358.789 84.5967 359.649 84.37 360.596 84.37C361.529 84.37 362.349 84.5833 363.056 85.01C363.776 85.4233 364.336 85.9967 364.736 86.73C365.149 87.45 365.356 88.27 365.356 89.19C365.356 89.3633 365.343 89.5433 365.316 89.73C365.303 89.9033 365.269 90.1033 365.216 90.33L357.096 90.35V88.39L363.996 88.37L362.936 89.19C362.909 88.6167 362.803 88.1367 362.616 87.75C362.443 87.3633 362.183 87.07 361.836 86.87C361.503 86.6567 361.089 86.55 360.596 86.55C360.076 86.55 359.623 86.67 359.236 86.91C358.849 87.1367 358.549 87.4633 358.336 87.89C358.136 88.3033 358.036 88.7967 358.036 89.37C358.036 89.9567 358.143 90.47 358.356 90.91C358.583 91.3367 358.903 91.67 359.316 91.91C359.729 92.1367 360.209 92.25 360.756 92.25C361.249 92.25 361.696 92.17 362.096 92.01C362.496 91.8367 362.843 91.5833 363.136 91.25L364.676 92.79C364.209 93.3367 363.636 93.75 362.956 94.03C362.289 94.31 361.563 94.45 360.776 94.45Z" fill="#1183CD"/>
</g>
<defs>
<clipPath id="clip0_9_239">
<rect width="302" height="75" fill="white" transform="translate(81.5 24.25)"/>
</clipPath>
</defs>
</svg>
